<svg width="511" height="80" viewBox="0 0 511 80" fill="none" xmlns="http://www.w3.org/2000/svg">
<rect width="328" height="80" fill="#E3B620"/>
<path d="M30.875 42.0312H19.1875L19.125 35.5938H28.9375C30.6667 35.5938 32.0833 35.375 33.1875 34.9375C34.2917 34.4792 35.1146 33.8229 35.6562 32.9688C36.2188 32.0938 36.5 31.0312 36.5 29.7812C36.5 28.3646 36.2292 27.2188 35.6875 26.3438C35.1667 25.4688 34.3438 24.8333 33.2188 24.4375C32.1146 24.0417 30.6875 23.8438 28.9375 23.8438H22.4375V62H13.0625V16.5H28.9375C31.5833 16.5 33.9479 16.75 36.0312 17.25C38.1354 17.75 39.9167 18.5104 41.375 19.5312C42.8333 20.5521 43.9479 21.8438 44.7188 23.4062C45.4896 24.9479 45.875 26.7812 45.875 28.9062C45.875 30.7812 45.4479 32.5104 44.5938 34.0938C43.7604 35.6771 42.4375 36.9688 40.625 37.9688C38.8333 38.9688 36.4896 39.5208 33.5938 39.625L30.875 42.0312ZM30.4688 62H16.625L20.2812 54.6875H30.4688C32.1146 54.6875 33.4583 54.4271 34.5 53.9062C35.5417 53.3646 36.3125 52.6354 36.8125 51.7188C37.3125 50.8021 37.5625 49.75 37.5625 48.5625C37.5625 47.2292 37.3333 46.0729 36.875 45.0938C36.4375 44.1146 35.7292 43.3646 34.75 42.8438C33.7708 42.3021 32.4792 42.0312 30.875 42.0312H21.8438L21.9062 35.5938H33.1562L35.3125 38.125C38.0833 38.0833 40.3125 38.5729 42 39.5938C43.7083 40.5938 44.9479 41.8958 45.7188 43.5C46.5104 45.1042 46.9062 46.8229 46.9062 48.6562C46.9062 51.5729 46.2708 54.0312 45 56.0312C43.7292 58.0104 41.8646 59.5 39.4062 60.5C36.9688 61.5 33.9896 62 30.4688 62ZM53.9375 16.5H70.9062C74.3854 16.5 77.375 17.0208 79.875 18.0625C82.3958 19.1042 84.3333 20.6458 85.6875 22.6875C87.0417 24.7292 87.7188 27.2396 87.7188 30.2188C87.7188 32.6562 87.3021 34.75 86.4688 36.5C85.6562 38.2292 84.5 39.6771 83 40.8438C81.5208 41.9896 79.7812 42.9062 77.7812 43.5938L74.8125 45.1562H60.0625L60 37.8438H70.9688C72.6146 37.8438 73.9792 37.5521 75.0625 36.9688C76.1458 36.3854 76.9583 35.5729 77.5 34.5312C78.0625 33.4896 78.3438 32.2812 78.3438 30.9062C78.3438 29.4479 78.0729 28.1875 77.5312 27.125C76.9896 26.0625 76.1667 25.25 75.0625 24.6875C73.9583 24.125 72.5729 23.8438 70.9062 23.8438H63.3125V62H53.9375V16.5ZM79.375 62L69 41.7188L78.9062 41.6562L89.4062 61.5625V62H79.375ZM125.469 54.6875V62H101.25V54.6875H125.469ZM104.312 16.5V62H94.9375V16.5H104.312ZM122.312 35.0312V42.1562H101.25V35.0312H122.312ZM125.438 16.5V23.8438H101.25V16.5H125.438ZM149.438 24.2812L137.062 62H127.094L144 16.5H150.344L149.438 24.2812ZM159.719 62L147.312 24.2812L146.312 16.5H152.719L169.719 62H159.719ZM159.156 45.0625V52.4062H135.125V45.0625H159.156ZM183.312 16.5V62H173.938V16.5H183.312ZM210.562 16.5L192.531 38.9688L182.125 50.1562L180.438 41.2812L187.469 31.6562L199.062 16.5H210.562ZM199.906 62L186.5 40.9688L193.438 35.1562L211 62H199.906ZM224.594 16.5V62H215.25V16.5H224.594ZM270.406 16.5V62H261.031L242.75 31.5V62H233.375V16.5H242.75L261.062 47.0312V16.5H270.406ZM314.625 38.2188V56.25C313.917 57.1042 312.823 58.0312 311.344 59.0312C309.865 60.0104 307.958 60.8542 305.625 61.5625C303.292 62.2708 300.469 62.625 297.156 62.625C294.219 62.625 291.542 62.1458 289.125 61.1875C286.708 60.2083 284.625 58.7812 282.875 56.9062C281.146 55.0312 279.812 52.7396 278.875 50.0312C277.938 47.3021 277.469 44.1875 277.469 40.6875V37.8438C277.469 34.3438 277.917 31.2292 278.812 28.5C279.729 25.7708 281.031 23.4688 282.719 21.5938C284.406 19.7188 286.417 18.2917 288.75 17.3125C291.083 16.3333 293.677 15.8438 296.531 15.8438C300.49 15.8438 303.74 16.4896 306.281 17.7812C308.823 19.0521 310.76 20.8229 312.094 23.0938C313.448 25.3438 314.281 27.9271 314.594 30.8438H305.5C305.271 29.3021 304.833 27.9583 304.188 26.8125C303.542 25.6667 302.615 24.7708 301.406 24.125C300.219 23.4792 298.677 23.1562 296.781 23.1562C295.219 23.1562 293.823 23.4792 292.594 24.125C291.385 24.75 290.365 25.6771 289.531 26.9062C288.698 28.1354 288.062 29.6562 287.625 31.4688C287.188 33.2812 286.969 35.3854 286.969 37.7812V40.6875C286.969 43.0625 287.198 45.1667 287.656 47C288.115 48.8125 288.792 50.3438 289.688 51.5938C290.604 52.8229 291.729 53.75 293.062 54.375C294.396 55 295.948 55.3125 297.719 55.3125C299.198 55.3125 300.427 55.1875 301.406 54.9375C302.406 54.6875 303.208 54.3854 303.812 54.0312C304.438 53.6562 304.917 53.3021 305.25 52.9688V44.9062H296.688V38.2188H314.625Z" fill="#121212"/>
<path d="M375.156 16.5V62H365.781L347.5 31.5V62H338.125V16.5H347.5L365.812 47.0312V16.5H375.156ZM413.844 54.6875V62H389.625V54.6875H413.844ZM392.688 16.5V62H383.312V16.5H392.688ZM410.688 35.0312V42.1562H389.625V35.0312H410.688ZM413.812 16.5V23.8438H389.625V16.5H413.812ZM430.281 54.7812L439.344 16.5H444.406L445.562 22.875L435.906 62H430.469L430.281 54.7812ZM425.625 16.5L433.125 54.7812L432.5 62H426.438L416.344 16.5H425.625ZM453.531 54.625L460.938 16.5H470.219L460.156 62H454.094L453.531 54.625ZM447.25 16.5L456.375 54.9375L456.125 62H450.688L440.969 22.8438L442.219 16.5H447.25ZM499 50.0938C499 49.2812 498.875 48.5521 498.625 47.9062C498.396 47.2396 497.958 46.6354 497.312 46.0938C496.667 45.5312 495.76 44.9792 494.594 44.4375C493.427 43.8958 491.917 43.3333 490.062 42.75C488 42.0833 486.042 41.3333 484.188 40.5C482.354 39.6667 480.729 38.6979 479.312 37.5938C477.917 36.4688 476.812 35.1667 476 33.6875C475.208 32.2083 474.812 30.4896 474.812 28.5312C474.812 26.6354 475.229 24.9167 476.062 23.375C476.896 21.8125 478.062 20.4792 479.562 19.375C481.062 18.25 482.833 17.3854 484.875 16.7812C486.938 16.1771 489.198 15.875 491.656 15.875C495.01 15.875 497.938 16.4792 500.438 17.6875C502.938 18.8958 504.875 20.5521 506.25 22.6562C507.646 24.7604 508.344 27.1667 508.344 29.875H499.031C499.031 28.5417 498.75 27.375 498.188 26.375C497.646 25.3542 496.812 24.5521 495.688 23.9688C494.583 23.3854 493.188 23.0938 491.5 23.0938C489.875 23.0938 488.521 23.3438 487.438 23.8438C486.354 24.3229 485.542 24.9792 485 25.8125C484.458 26.625 484.188 27.5417 484.188 28.5625C484.188 29.3333 484.375 30.0312 484.75 30.6562C485.146 31.2812 485.729 31.8646 486.5 32.4062C487.271 32.9479 488.219 33.4583 489.344 33.9375C490.469 34.4167 491.771 34.8854 493.25 35.3438C495.729 36.0938 497.906 36.9375 499.781 37.875C501.677 38.8125 503.26 39.8646 504.531 41.0312C505.802 42.1979 506.76 43.5208 507.406 45C508.052 46.4792 508.375 48.1562 508.375 50.0312C508.375 52.0104 507.99 53.7812 507.219 55.3438C506.448 56.9062 505.333 58.2292 503.875 59.3125C502.417 60.3958 500.677 61.2188 498.656 61.7812C496.635 62.3438 494.375 62.625 491.875 62.625C489.625 62.625 487.406 62.3333 485.219 61.75C483.031 61.1458 481.042 60.2396 479.25 59.0312C477.479 57.8229 476.062 56.2812 475 54.4062C473.938 52.5312 473.406 50.3125 473.406 47.75H482.812C482.812 49.1667 483.031 50.3646 483.469 51.3438C483.906 52.3229 484.521 53.1146 485.312 53.7188C486.125 54.3229 487.083 54.7604 488.188 55.0312C489.312 55.3021 490.542 55.4375 491.875 55.4375C493.5 55.4375 494.833 55.2083 495.875 54.75C496.938 54.2917 497.719 53.6562 498.219 52.8438C498.74 52.0312 499 51.1146 499 50.0938Z" fill="white"/>
</svg>
