<svg width="517" height="80" viewBox="0 0 517 80" fill="none" xmlns="http://www.w3.org/2000/svg">
<rect x="310" width="207" height="80" fill="#E3B620"/>
<path d="M21.875 42.0312H10.1875L10.125 35.5938H19.9375C21.6667 35.5938 23.0833 35.375 24.1875 34.9375C25.2917 34.4792 26.1146 33.8229 26.6562 32.9688C27.2188 32.0938 27.5 31.0312 27.5 29.7812C27.5 28.3646 27.2292 27.2188 26.6875 26.3438C26.1667 25.4688 25.3438 24.8333 24.2188 24.4375C23.1146 24.0417 21.6875 23.8438 19.9375 23.8438H13.4375V62H4.0625V16.5H19.9375C22.5833 16.5 24.9479 16.75 27.0312 17.25C29.1354 17.75 30.9167 18.5104 32.375 19.5312C33.8333 20.5521 34.9479 21.8438 35.7188 23.4062C36.4896 24.9479 36.875 26.7812 36.875 28.9062C36.875 30.7812 36.4479 32.5104 35.5938 34.0938C34.7604 35.6771 33.4375 36.9688 31.625 37.9688C29.8333 38.9688 27.4896 39.5208 24.5938 39.625L21.875 42.0312ZM21.4688 62H7.625L11.2812 54.6875H21.4688C23.1146 54.6875 24.4583 54.4271 25.5 53.9062C26.5417 53.3646 27.3125 52.6354 27.8125 51.7188C28.3125 50.8021 28.5625 49.75 28.5625 48.5625C28.5625 47.2292 28.3333 46.0729 27.875 45.0938C27.4375 44.1146 26.7292 43.3646 25.75 42.8438C24.7708 42.3021 23.4792 42.0312 21.875 42.0312H12.8438L12.9062 35.5938H24.1562L26.3125 38.125C29.0833 38.0833 31.3125 38.5729 33 39.5938C34.7083 40.5938 35.9479 41.8958 36.7188 43.5C37.5104 45.1042 37.9062 46.8229 37.9062 48.6562C37.9062 51.5729 37.2708 54.0312 36 56.0312C34.7292 58.0104 32.8646 59.5 30.4062 60.5C27.9688 61.5 24.9896 62 21.4688 62ZM44.9375 16.5H61.9062C65.3854 16.5 68.375 17.0208 70.875 18.0625C73.3958 19.1042 75.3333 20.6458 76.6875 22.6875C78.0417 24.7292 78.7188 27.2396 78.7188 30.2188C78.7188 32.6562 78.3021 34.75 77.4688 36.5C76.6562 38.2292 75.5 39.6771 74 40.8438C72.5208 41.9896 70.7812 42.9062 68.7812 43.5938L65.8125 45.1562H51.0625L51 37.8438H61.9688C63.6146 37.8438 64.9792 37.5521 66.0625 36.9688C67.1458 36.3854 67.9583 35.5729 68.5 34.5312C69.0625 33.4896 69.3438 32.2812 69.3438 30.9062C69.3438 29.4479 69.0729 28.1875 68.5312 27.125C67.9896 26.0625 67.1667 25.25 66.0625 24.6875C64.9583 24.125 63.5729 23.8438 61.9062 23.8438H54.3125V62H44.9375V16.5ZM70.375 62L60 41.7188L69.9062 41.6562L80.4062 61.5625V62H70.375ZM116.469 54.6875V62H92.25V54.6875H116.469ZM95.3125 16.5V62H85.9375V16.5H95.3125ZM113.312 35.0312V42.1562H92.25V35.0312H113.312ZM116.438 16.5V23.8438H92.25V16.5H116.438ZM140.438 24.2812L128.062 62H118.094L135 16.5H141.344L140.438 24.2812ZM150.719 62L138.312 24.2812L137.312 16.5H143.719L160.719 62H150.719ZM150.156 45.0625V52.4062H126.125V45.0625H150.156ZM174.312 16.5V62H164.938V16.5H174.312ZM201.562 16.5L183.531 38.9688L173.125 50.1562L171.438 41.2812L178.469 31.6562L190.062 16.5H201.562ZM190.906 62L177.5 40.9688L184.438 35.1562L202 62H190.906ZM215.594 16.5V62H206.25V16.5H215.594ZM261.406 16.5V62H252.031L233.75 31.5V62H224.375V16.5H233.75L252.062 47.0312V16.5H261.406ZM305.625 38.2188V56.25C304.917 57.1042 303.823 58.0312 302.344 59.0312C300.865 60.0104 298.958 60.8542 296.625 61.5625C294.292 62.2708 291.469 62.625 288.156 62.625C285.219 62.625 282.542 62.1458 280.125 61.1875C277.708 60.2083 275.625 58.7812 273.875 56.9062C272.146 55.0312 270.812 52.7396 269.875 50.0312C268.938 47.3021 268.469 44.1875 268.469 40.6875V37.8438C268.469 34.3438 268.917 31.2292 269.812 28.5C270.729 25.7708 272.031 23.4688 273.719 21.5938C275.406 19.7188 277.417 18.2917 279.75 17.3125C282.083 16.3333 284.677 15.8438 287.531 15.8438C291.49 15.8438 294.74 16.4896 297.281 17.7812C299.823 19.0521 301.76 20.8229 303.094 23.0938C304.448 25.3438 305.281 27.9271 305.594 30.8438H296.5C296.271 29.3021 295.833 27.9583 295.188 26.8125C294.542 25.6667 293.615 24.7708 292.406 24.125C291.219 23.4792 289.677 23.1562 287.781 23.1562C286.219 23.1562 284.823 23.4792 283.594 24.125C282.385 24.75 281.365 25.6771 280.531 26.9062C279.698 28.1354 279.062 29.6562 278.625 31.4688C278.188 33.2812 277.969 35.3854 277.969 37.7812V40.6875C277.969 43.0625 278.198 45.1667 278.656 47C279.115 48.8125 279.792 50.3438 280.688 51.5938C281.604 52.8229 282.729 53.75 284.062 54.375C285.396 55 286.948 55.3125 288.719 55.3125C290.198 55.3125 291.427 55.1875 292.406 54.9375C293.406 54.6875 294.208 54.3854 294.812 54.0312C295.438 53.6562 295.917 53.3021 296.25 52.9688V44.9062H287.688V38.2188H305.625Z" fill="#121212"/>
<path d="M366.156 16.5V62H356.781L338.5 31.5V62H329.125V16.5H338.5L356.812 47.0312V16.5H366.156ZM404.844 54.6875V62H380.625V54.6875H404.844ZM383.688 16.5V62H374.312V16.5H383.688ZM401.688 35.0312V42.1562H380.625V35.0312H401.688ZM404.812 16.5V23.8438H380.625V16.5H404.812ZM421.281 54.7812L430.344 16.5H435.406L436.562 22.875L426.906 62H421.469L421.281 54.7812ZM416.625 16.5L424.125 54.7812L423.5 62H417.438L407.344 16.5H416.625ZM444.531 54.625L451.938 16.5H461.219L451.156 62H445.094L444.531 54.625ZM438.25 16.5L447.375 54.9375L447.125 62H441.688L431.969 22.8438L433.219 16.5H438.25ZM490 50.0938C490 49.2812 489.875 48.5521 489.625 47.9062C489.396 47.2396 488.958 46.6354 488.312 46.0938C487.667 45.5312 486.76 44.9792 485.594 44.4375C484.427 43.8958 482.917 43.3333 481.062 42.75C479 42.0833 477.042 41.3333 475.188 40.5C473.354 39.6667 471.729 38.6979 470.312 37.5938C468.917 36.4688 467.812 35.1667 467 33.6875C466.208 32.2083 465.812 30.4896 465.812 28.5312C465.812 26.6354 466.229 24.9167 467.062 23.375C467.896 21.8125 469.062 20.4792 470.562 19.375C472.062 18.25 473.833 17.3854 475.875 16.7812C477.938 16.1771 480.198 15.875 482.656 15.875C486.01 15.875 488.938 16.4792 491.438 17.6875C493.938 18.8958 495.875 20.5521 497.25 22.6562C498.646 24.7604 499.344 27.1667 499.344 29.875H490.031C490.031 28.5417 489.75 27.375 489.188 26.375C488.646 25.3542 487.812 24.5521 486.688 23.9688C485.583 23.3854 484.188 23.0938 482.5 23.0938C480.875 23.0938 479.521 23.3438 478.438 23.8438C477.354 24.3229 476.542 24.9792 476 25.8125C475.458 26.625 475.188 27.5417 475.188 28.5625C475.188 29.3333 475.375 30.0312 475.75 30.6562C476.146 31.2812 476.729 31.8646 477.5 32.4062C478.271 32.9479 479.219 33.4583 480.344 33.9375C481.469 34.4167 482.771 34.8854 484.25 35.3438C486.729 36.0938 488.906 36.9375 490.781 37.875C492.677 38.8125 494.26 39.8646 495.531 41.0312C496.802 42.1979 497.76 43.5208 498.406 45C499.052 46.4792 499.375 48.1562 499.375 50.0312C499.375 52.0104 498.99 53.7812 498.219 55.3438C497.448 56.9062 496.333 58.2292 494.875 59.3125C493.417 60.3958 491.677 61.2188 489.656 61.7812C487.635 62.3438 485.375 62.625 482.875 62.625C480.625 62.625 478.406 62.3333 476.219 61.75C474.031 61.1458 472.042 60.2396 470.25 59.0312C468.479 57.8229 467.062 56.2812 466 54.4062C464.938 52.5312 464.406 50.3125 464.406 47.75H473.812C473.812 49.1667 474.031 50.3646 474.469 51.3438C474.906 52.3229 475.521 53.1146 476.312 53.7188C477.125 54.3229 478.083 54.7604 479.188 55.0312C480.312 55.3021 481.542 55.4375 482.875 55.4375C484.5 55.4375 485.833 55.2083 486.875 54.75C487.938 54.2917 488.719 53.6562 489.219 52.8438C489.74 52.0312 490 51.1146 490 50.0938Z" fill="white"/>
</svg>
